<?xml version="1.0" standalone="no"?>
<!DOCTYPE svg PUBLIC "-//W3C//DTD SVG 20010904//EN"
 "http://www.w3.org/TR/2001/REC-SVG-20010904/DTD/svg10.dtd">
<svg version="1.0" xmlns="http://www.w3.org/2000/svg"
 width="1500.000000pt" height="1500.000000pt" viewBox="0 0 1500.000000 1500.000000"
 preserveAspectRatio="xMidYMid meet">

<g transform="translate(0.000000,1500.000000) scale(0.100000,-0.100000)"
fill="#000000" stroke="none">
<path d="M0 7500 l0 -7500 7500 0 7500 0 0 7500 0 7500 -7500 0 -7500 0 0
-7500z m8130 4486 c391 -48 729 -128 1050 -248 153 -57 195 -77 236 -111 16
-13 103 -61 194 -107 590 -295 1101 -718 1495 -1235 237 -311 551 -892 609
-1125 9 -36 25 -81 36 -100 29 -55 61 -140 76 -205 7 -33 24 -91 38 -130 24
-68 77 -310 75 -343 -2 -41 -29 55 -40 140 -6 51 -15 100 -20 108 -5 9 -6 -1
-2 -22 9 -57 -11 -46 -26 15 -43 171 -114 397 -172 543 -41 102 -64 139 -34
54 24 -69 12 -55 -25 28 -189 429 -413 792 -631 1027 -46 50 -75 83 -64 75 11
-8 7 0 -9 18 -16 17 -33 29 -39 25 -5 -3 -20 7 -33 23 -28 35 -30 46 -6 37 29
-11 -29 48 -63 63 -16 7 -82 63 -145 124 -373 363 -616 538 -1005 730 -471
231 -828 350 -1296 429 -278 47 -395 56 -749 56 -346 -1 -458 -10 -740 -61
-349 -63 -722 -186 -1040 -342 -135 -66 -340 -180 -340 -188 0 -3 48 21 108
51 185 98 365 175 378 164 9 -7 21 -6 41 5 23 12 24 15 8 16 -11 0 -15 3 -10
9 10 9 184 75 294 111 71 23 105 21 51 -3 -34 -16 -34 -16 -5 -10 54 11 21 -5
-85 -43 -265 -91 -478 -182 -615 -261 -39 -21 -88 -45 -110 -52 -22 -7 -94
-51 -160 -98 -66 -47 -140 -95 -165 -106 -123 -55 -640 -528 -842 -772 -55
-66 -108 -129 -117 -140 -65 -79 -236 -336 -278 -420 -27 -53 2 -14 122 164
218 326 355 497 502 627 501 442 794 646 1238 860 234 112 475 202 701 260
134 34 343 73 432 81 40 3 80 12 89 18 13 10 0 10 -57 -1 -95 -17 -111 -17
-90 -4 11 7 2 10 -32 10 -33 0 -48 -4 -48 -13 0 -9 -31 -20 -92 -31 -51 -10
-126 -27 -167 -37 -41 -11 -76 -17 -78 -15 -3 2 26 21 62 42 44 24 97 43 154
55 398 81 887 107 1296 68 552 -53 1048 -193 1516 -428 205 -103 293 -157 467
-282 338 -245 582 -464 819 -736 194 -223 441 -580 487 -705 15 -40 40 -86 56
-103 50 -53 205 -429 286 -693 130 -429 203 -932 177 -1227 l-9 -90 -7 170
c-10 230 -31 415 -72 630 -41 211 -49 242 -60 235 -5 -3 -14 13 -21 35 -102
324 -136 425 -191 564 -36 90 -96 230 -135 310 -56 117 -72 142 -78 126 -8
-20 -5 -27 48 -107 30 -46 25 -74 -6 -31 -12 16 -42 72 -67 122 -60 120 -145
254 -269 421 -305 413 -705 776 -1163 1053 -121 74 -137 82 -128 67 5 -8 3
-11 -6 -8 -8 3 -13 10 -12 16 2 7 -4 9 -14 5 -10 -4 -14 -2 -9 5 3 6 1 14 -5
18 -8 4 -9 3 -5 -4 10 -16 1 -15 -35 3 -17 9 -27 21 -23 27 4 7 3 8 -5 4 -6
-4 -22 -1 -34 7 -12 7 -38 16 -57 20 -19 3 -44 8 -55 12 -11 3 9 -10 45 -29
84 -45 73 -45 -26 0 -165 76 -523 213 -692 266 -35 11 -62 21 -59 24 2 2 68
-16 146 -42 153 -49 197 -55 78 -11 -39 15 -60 25 -44 22 58 -11 22 5 -95 44
-176 57 -201 63 -210 48 -12 -18 -10 -25 10 -31 33 -9 -85 6 -262 35 -99 16
-211 29 -249 29 -54 0 -68 3 -64 14 5 13 -45 16 -333 20 -31 1 -63 -8 -95 -25
-41 -20 -66 -25 -140 -28 -179 -5 -480 -47 -685 -96 -722 -174 -1414 -556
-1900 -1049 -63 -64 -82 -89 -72 -95 18 -11 -44 -83 -68 -79 -16 3 -56 -38
-100 -102 -13 -19 -45 -60 -70 -90 -208 -247 -423 -592 -558 -900 -186 -424
-295 -830 -338 -1265 -22 -215 -22 -592 0 -795 72 -680 298 -1318 662 -1865
138 -208 247 -339 453 -546 188 -188 310 -294 546 -474 358 -274 401 -300 690
-425 579 -251 962 -360 1273 -360 48 0 138 -9 201 -20 203 -36 491 -23 841 36
190 32 617 138 640 159 23 21 101 47 124 41 39 -10 380 143 626 281 226 126
396 242 575 391 l90 75 -70 -72 c-119 -122 -306 -256 -625 -448 -85 -51 -151
-93 -147 -93 14 0 193 93 292 153 127 76 332 222 500 355 71 56 105 79 75 51
-158 -148 -438 -350 -665 -480 -328 -188 -748 -354 -1105 -439 -74 -17 -166
-42 -205 -55 -138 -47 -428 -74 -840 -77 -188 -1 -238 -4 -200 -11 28 -5 174
-10 325 -11 303 -1 426 10 705 66 330 65 721 193 1024 334 52 24 97 44 100 44
28 -2 -146 -92 -307 -160 -56 -24 -101 -45 -99 -46 4 -4 133 42 243 86 105 41
222 105 259 140 17 15 59 42 95 60 287 143 548 333 840 614 152 146 180 168
102 80 -187 -212 -423 -416 -677 -586 -195 -131 -203 -139 -41 -43 244 144
436 298 712 571 220 217 332 343 450 504 76 103 166 245 208 328 14 28 44 79
66 113 87 135 206 391 278 601 132 381 217 872 224 1300 2 93 6 168 10 168 23
0 30 -458 9 -645 -54 -481 -193 -974 -392 -1393 -32 -69 -59 -131 -59 -139 0
-16 12 -17 28 -1 69 69 -171 -306 -248 -387 -20 -22 -61 -76 -91 -120 -90
-135 -169 -235 -284 -356 -60 -64 -123 -134 -138 -155 -15 -21 -85 -90 -155
-152 -70 -63 -131 -119 -137 -126 -5 -7 -37 -30 -70 -52 -33 -22 -145 -99
-250 -171 -200 -138 -345 -221 -472 -273 -43 -17 -84 -37 -93 -45 -20 -18
-142 -74 -295 -135 -370 -147 -810 -249 -1235 -286 -251 -22 -708 -15 -925 15
-501 68 -890 180 -1320 378 -419 194 -840 477 -1153 778 -280 267 -589 634
-722 856 -30 50 -74 118 -97 152 -23 34 -72 118 -109 187 -37 68 -80 145 -95
171 -16 26 -35 66 -43 90 -7 24 -36 91 -64 149 -28 58 -54 122 -57 143 -5 26
-10 35 -16 26 -10 -16 -14 -6 -79 200 -114 366 -168 618 -180 836 -5 83 -15
184 -24 225 -19 96 -20 283 -1 425 17 128 19 175 6 175 -5 0 -12 -10 -15 -22
-2 -13 -3 2 -1 32 9 134 28 273 50 372 13 59 31 160 40 225 21 147 80 382 147
578 161 476 403 916 732 1335 79 102 269 320 274 315 7 -7 -22 -51 -72 -105
-28 -30 15 10 94 89 395 393 802 684 1285 920 533 260 1045 399 1675 455 119
10 711 -2 840 -18z m1449 -862 c14 -12 -19 -1 -35 12 -18 14 -18 14 6 3 14 -6
27 -13 29 -15z m-1767 -1153 c374 -76 688 -261 937 -550 278 -324 422 -771
383 -1189 -21 -230 -66 -390 -162 -587 -163 -334 -414 -587 -745 -749 -146
-72 -244 -106 -388 -136 -742 -155 -1493 218 -1816 902 -183 387 -209 806 -75
1217 56 172 166 374 281 516 54 67 193 201 270 261 238 187 485 287 838 338
75 11 383 -4 477 -23z m-3075 -3888 c121 -137 229 -256 239 -265 19 -16 19
-10 16 248 l-3 264 66 0 65 0 0 -409 c0 -226 -4 -412 -9 -415 -4 -3 -115 114
-246 259 -131 146 -239 265 -240 265 -1 0 -1 -112 1 -249 2 -137 1 -256 -2
-265 -5 -12 -20 -16 -65 -16 l-59 0 0 415 c0 228 4 415 8 415 4 0 107 -111
229 -247z m4043 192 l0 -55 -105 0 -105 0 -2 -357 -3 -358 -60 0 -60 0 -3 358
-2 357 -105 0 -105 0 0 55 0 55 275 0 275 0 0 -55z m1358 -140 l-4 -196 30 32
c39 42 83 59 153 59 75 0 121 -24 153 -81 24 -42 25 -52 28 -247 l3 -203 -58
3 -58 3 -5 180 c-5 185 -11 214 -50 235 -48 26 -131 -5 -165 -62 -17 -28 -21
-56 -25 -193 l-5 -160 -57 -3 -58 -3 0 416 0 415 61 0 61 0 -4 -195z m-4503
-124 c68 -31 99 -77 116 -171 4 -25 5 -62 2 -82 l-6 -38 -183 0 -184 0 15 -37
c37 -91 119 -111 270 -68 16 5 24 -1 38 -30 9 -20 17 -40 17 -45 0 -18 -106
-44 -180 -44 -105 0 -153 16 -209 72 -129 129 -88 370 74 443 56 25 177 25
230 0z m653 0 c21 -11 44 -31 51 -44 l14 -25 24 28 c35 42 99 63 177 58 74 -4
109 -24 141 -79 18 -30 20 -55 23 -241 l3 -208 -59 0 -60 0 -4 184 c-3 169 -5
187 -24 213 -41 55 -149 35 -185 -34 -9 -19 -15 -81 -19 -193 l-5 -165 -59 0
-60 0 3 119 c3 166 -7 264 -30 287 -26 26 -92 25 -136 -2 -62 -39 -77 -84 -81
-256 l-4 -153 -59 0 -59 0 0 260 0 260 60 0 60 0 0 -41 0 -41 29 31 c16 17 44
38 63 46 49 21 151 19 196 -4z m945 -2 c23 -12 44 -23 45 -25 2 -1 -8 -25 -23
-53 l-27 -50 -27 20 c-42 31 -91 34 -145 10 -56 -24 -76 -63 -76 -146 0 -110
46 -165 137 -165 29 0 69 7 88 15 l35 14 21 -41 c21 -40 21 -42 3 -55 -11 -8
-43 -21 -73 -30 -127 -37 -262 23 -317 142 -35 73 -34 182 2 253 45 91 119
131 242 132 55 0 83 -5 115 -21z m474 6 c20 -9 52 -27 70 -41 l33 -25 0 35 0
36 60 0 60 0 -2 -257 -3 -258 -57 -3 -58 -3 0 42 0 43 -27 -26 c-92 -86 -247
-82 -337 8 -93 94 -103 273 -19 382 54 71 191 104 280 67z m1536 -4 c79 -36
116 -106 117 -218 l0 -73 -186 0 -185 0 6 -22 c27 -93 121 -129 244 -92 29 8
55 14 57 12 2 -2 10 -21 19 -41 l16 -38 -43 -18 c-94 -41 -237 -34 -310 14
-87 58 -130 167 -110 278 18 98 87 182 168 207 55 16 162 11 207 -9z m577 9
c19 -6 44 -17 55 -25 19 -15 19 -16 -5 -60 -14 -25 -28 -45 -32 -45 -4 0 -23
10 -43 21 -28 17 -46 20 -80 16 -57 -8 -79 -22 -104 -68 -41 -72 -19 -197 41
-240 25 -18 39 -20 96 -16 37 3 77 8 89 12 17 6 25 1 37 -24 24 -46 20 -57
-31 -77 -102 -39 -241 -15 -306 54 -104 111 -101 304 8 400 24 21 59 44 77 49
43 14 154 16 198 3z m-4070 -734 c0 -7 -13 -16 -30 -19 -24 -5 -30 -12 -30
-31 0 -18 6 -25 23 -28 12 -2 22 -10 22 -18 0 -8 -10 -16 -22 -18 -18 -3 -23
-10 -23 -33 0 -27 3 -29 35 -29 29 0 35 -4 35 -21 0 -18 -5 -20 -52 -17 l-53
3 -3 99 c-1 55 0 106 2 113 7 18 96 18 96 -1z m1670 -37 c0 -45 2 -50 18 -44
37 15 61 13 82 -10 30 -31 24 -81 -12 -108 -24 -18 -31 -19 -54 -8 -21 9 -29
9 -34 0 -20 -31 -30 8 -30 112 0 90 3 109 15 109 11 0 15 -12 15 -51z m188
-61 c-2 -67 -7 -113 -13 -113 -6 0 -11 46 -13 113 -2 96 0 112 13 112 13 0 15
-16 13 -112z m382 3 c0 -67 -4 -112 -11 -116 -17 -11 -18 -4 -20 90 -2 127 -1
135 16 135 12 0 15 -19 15 -109z m-1460 -1 c28 -56 48 -105 45 -110 -8 -14
-33 -1 -40 21 -5 15 -16 19 -58 19 -44 0 -54 -3 -62 -22 -12 -26 -35 -36 -35
-15 0 15 88 207 96 207 2 0 27 -45 54 -100z m815 70 c0 -8 -8 -16 -17 -18 -13
-2 -18 3 -18 18 0 15 5 20 18 18 9 -2 17 -10 17 -18z m1606 -47 c25 -7 24 -19
-1 -26 -17 -4 -20 -14 -20 -61 0 -43 -3 -56 -15 -56 -11 0 -15 12 -15 51 0 37
-5 56 -17 65 -17 13 -17 15 0 25 9 5 17 21 17 34 0 35 24 38 28 2 2 -19 10
-31 23 -34z m79 47 c0 -13 -7 -20 -20 -20 -13 0 -20 7 -20 20 0 13 7 20 20 20
13 0 20 -7 20 -20z m-3151 -49 c9 -6 22 -6 33 0 17 9 18 4 18 -66 0 -68 -9
-91 -25 -65 -4 7 -12 7 -25 0 -10 -5 -26 -10 -35 -10 -25 0 -65 46 -65 75 0
30 41 75 67 75 10 0 25 -4 32 -9z m180 0 c21 -13 5 -29 -24 -23 -36 6 -31 -13
10 -37 40 -23 44 -40 15 -66 -14 -13 -28 -16 -55 -11 -45 9 -42 32 3 28 42 -5
41 11 -3 37 -40 24 -44 43 -13 65 25 18 46 20 67 7z m88 -45 l17 -51 20 48
c12 30 26 47 37 47 14 0 10 -16 -24 -105 -31 -79 -45 -105 -59 -105 -22 0 -22
3 -3 40 14 28 14 34 -10 92 -29 71 -31 85 -10 85 9 0 21 -21 32 -51z m540 48
c13 -4 20 -11 16 -20 -3 -9 -13 -12 -25 -8 -25 7 -48 -12 -48 -41 0 -28 24
-49 49 -42 11 3 22 -1 25 -8 7 -19 -47 -29 -74 -15 -44 24 -48 96 -7 125 24
16 31 18 64 9z m140 0 c13 -4 20 -11 16 -20 -3 -9 -13 -12 -25 -8 -24 7 -48
-12 -48 -40 0 -30 18 -46 52 -46 34 0 37 -16 4 -24 -31 -8 -56 1 -78 28 -25
30 -22 63 7 91 25 26 35 29 72 19z m143 -4 c25 -14 41 -44 34 -64 -4 -11 -19
-16 -51 -16 -55 0 -55 -23 0 -28 41 -4 49 -19 14 -27 -33 -9 -75 11 -89 40
-15 34 -1 76 32 92 31 15 36 16 60 3z m149 1 c21 -13 5 -29 -24 -23 -36 6 -31
-13 10 -37 43 -25 47 -57 8 -72 -33 -12 -73 -4 -73 16 0 10 9 12 35 8 19 -3
35 -1 35 4 0 5 -16 17 -35 26 -26 12 -35 23 -35 41 0 37 46 58 79 37z m140 0
c21 -13 5 -29 -24 -23 -36 6 -31 -13 10 -37 19 -11 35 -27 35 -35 0 -26 -45
-49 -80 -41 -40 9 -33 31 8 27 37 -4 43 14 9 27 -32 13 -50 37 -42 60 8 27 56
39 84 22z m506 -11 c18 -15 20 -72 3 -69 -7 1 -28 1 -46 0 -45 -1 -37 -26 8
-27 19 0 35 -5 37 -11 6 -17 -53 -26 -79 -12 -31 16 -38 28 -38 64 0 35 7 48
34 62 24 13 60 10 81 -7z m325 10 c22 14 47 12 64 -6 22 -22 23 -134 1 -134
-11 0 -15 11 -15 38 0 77 -20 101 -54 66 -10 -9 -16 -33 -16 -60 0 -32 -4 -44
-15 -44 -12 0 -15 14 -15 69 0 47 4 71 13 74 6 2 14 0 17 -4 3 -4 12 -4 20 1z
m150 0 c0 -7 6 -7 19 0 53 28 81 -1 81 -81 0 -46 -3 -59 -15 -59 -11 0 -15 12
-15 44 0 53 -8 76 -25 76 -21 0 -35 -25 -39 -69 -4 -46 -9 -56 -25 -46 -12 7
-15 127 -4 138 10 10 23 8 23 -3z m255 -15 c27 -26 31 -54 15 -85 -41 -77
-158 -24 -129 58 18 53 76 66 114 27z m92 -17 l21 -43 17 37 c17 35 41 55 53
43 7 -7 -60 -135 -70 -135 -12 0 -69 120 -63 130 11 18 21 10 42 -32z m236 32
c27 0 27 0 27 -64 0 -65 -10 -86 -33 -67 -8 6 -18 6 -27 1 -43 -27 -92 8 -92
65 0 49 32 80 72 70 14 -3 37 -6 53 -5z m205 -71 c-2 -49 -7 -64 -18 -64 -20
0 -28 124 -8 136 22 14 29 -6 26 -72z m78 37 l22 -39 21 41 c14 28 26 39 36
36 11 -5 8 -18 -18 -70 -17 -35 -36 -63 -41 -61 -10 3 -76 116 -76 130 0 22
37 -3 56 -37z m226 25 c4 -3 11 -21 14 -39 l7 -32 -51 0 c-43 0 -50 -3 -45
-16 4 -11 15 -15 39 -12 41 5 56 -19 17 -28 -87 -22 -142 93 -63 133 24 13 67
10 82 -6z m-1984 -58 c-2 -53 -6 -68 -18 -68 -12 0 -16 15 -18 68 -3 62 -1 67
18 67 19 0 21 -5 18 -67z m-1050 -55 c2 -13 -6 -35 -16 -48 l-20 -24 3 49 c3
60 2 58 18 53 6 -3 13 -16 15 -30z m1551 -21 c-5 -18 -9 -33 -9 -33 0 -1 -6
-4 -14 -7 -12 -5 -13 2 -9 31 8 60 11 66 27 53 11 -9 12 -20 5 -44z"/>
<path d="M7373 11763 c20 -2 54 -2 75 0 20 2 3 4 -38 4 -41 0 -58 -2 -37 -4z"/>
<path d="M7588 11763 c29 -2 74 -2 100 0 26 2 2 3 -53 3 -55 0 -76 -1 -47 -3z"/>
<path d="M7195 11745 l-30 -14 30 0 c17 -1 50 6 75 13 l45 15 -45 0 c-25 -1
-58 -7 -75 -14z"/>
<path d="M7398 11743 c7 -3 16 -2 19 1 4 3 -2 6 -13 5 -11 0 -14 -3 -6 -6z"/>
<path d="M8840 11715 c19 -7 42 -13 50 -13 8 0 -1 6 -20 13 -19 7 -42 13 -50
13 -8 0 1 -6 20 -13z"/>
<path d="M7710 11653 c0 -10 25 -13 108 -12 116 2 113 5 -20 17 -70 6 -88 5
-88 -5z"/>
<path d="M7468 11653 c18 -2 45 -2 60 0 15 2 0 4 -33 4 -33 0 -45 -2 -27 -4z"/>
<path d="M7988 11633 c6 -2 18 -2 25 0 6 3 1 5 -13 5 -14 0 -19 -2 -12 -5z"/>
<path d="M8188 11633 c7 -3 16 -2 19 1 4 3 -2 6 -13 5 -11 0 -14 -3 -6 -6z"/>
<path d="M8215 11620 c-4 -6 15 -10 52 -9 48 1 53 3 28 9 -44 11 -73 11 -80 0z"/>
<path d="M8718 11592 c-25 -5 -22 -19 5 -26 32 -8 37 -8 37 8 0 16 -18 24 -42
18z"/>
<path d="M8953 11442 c4 -6 29 -18 55 -28 26 -10 53 -22 60 -27 7 -5 14 -8 17
-6 9 10 -13 27 -55 41 -25 9 -54 19 -64 24 -13 5 -17 4 -13 -4z"/>
<path d="M9320 11281 c0 -5 18 -13 40 -19 50 -12 51 -7 4 13 -43 18 -44 18
-44 6z"/>
<path d="M9880 11072 c0 -6 23 -27 51 -47 28 -20 49 -31 47 -23 -6 17 -98 83
-98 70z"/>
<path d="M10195 10840 c7 -14 85 -87 85 -78 0 2 -21 24 -46 48 -25 25 -42 38
-39 30z"/>
<path d="M10591 10439 c256 -273 388 -448 562 -745 23 -39 31 -45 38 -32 6 11
-3 37 -33 89 -24 41 -48 79 -54 84 -7 6 -62 77 -124 159 -62 83 -144 188 -184
235 -101 121 -289 321 -302 321 -3 0 40 -50 97 -111z"/>
<path d="M4113 10407 c-27 -29 -55 -64 -62 -77 -9 -17 -4 -14 16 10 15 19 45
54 67 78 21 23 36 42 34 42 -3 0 -28 -24 -55 -53z"/>
<path d="M11610 9315 c0 -5 5 -17 10 -25 5 -8 10 -10 10 -5 0 6 -5 17 -10 25
-5 8 -10 11 -10 5z"/>
<path d="M3132 6770 c0 -14 2 -19 5 -12 2 6 2 18 0 25 -3 6 -5 1 -5 -13z"/>
<path d="M3142 6720 c0 -14 2 -19 5 -12 2 6 2 18 0 25 -3 6 -5 1 -5 -13z"/>
<path d="M9744 3774 c-18 -14 -18 -15 4 -4 12 6 22 13 22 15 0 8 -5 6 -26 -11z"/>
<path d="M9654 3724 c-18 -14 -18 -15 4 -4 12 6 22 13 22 15 0 8 -5 6 -26 -11z"/>
<path d="M9584 3684 c-18 -14 -18 -15 4 -4 12 6 22 13 22 15 0 8 -5 6 -26 -11z"/>
<path d="M9535 3660 c-3 -6 1 -7 9 -4 18 7 21 14 7 14 -6 0 -13 -4 -16 -10z"/>
<path d="M9310 3553 c-312 -146 -700 -259 -1145 -332 -59 -10 -59 -10 20 -5
237 16 547 92 850 209 140 54 381 163 360 163 -5 0 -44 -15 -85 -35z"/>
<path d="M7265 9906 c-590 -98 -1058 -494 -1245 -1055 -59 -174 -74 -275 -75
-486 0 -205 16 -314 71 -483 151 -463 510 -831 968 -992 391 -136 821 -112
1198 69 438 209 763 637 854 1126 25 135 26 419 0 555 -43 237 -155 488 -300
675 -228 294 -548 494 -918 576 -120 27 -432 35 -553 15z m886 -816 c128 -24
229 -101 286 -218 32 -64 39 -88 42 -154 8 -182 -89 -332 -259 -400 -47 -18
-80 -22 -235 -26 l-180 -4 -96 -95 c-56 -55 -102 -93 -108 -89 -7 5 -11 45
-11 107 l0 99 -46 21 c-111 53 -203 177 -224 301 -33 205 107 410 310 454 68
15 447 18 521 4z m-928 -342 c-3 -40 -6 -79 -8 -85 -3 -10 -54 -13 -210 -13
l-205 0 0 -400 0 -400 200 -1 c110 -1 205 -2 210 -3 6 0 16 -12 23 -26 12 -24
16 -25 137 -28 147 -3 163 0 178 32 l11 25 206 -2 205 -2 0 172 0 172 85 3 85
3 0 -172 0 -172 58 -3 57 -3 3 -48 c2 -34 -3 -62 -18 -92 -38 -79 10 -75 -857
-75 -594 0 -774 3 -793 13 -13 7 -35 28 -48 47 -19 28 -22 45 -20 94 l3 61 50
0 50 0 5 453 5 454 37 34 38 34 259 0 258 0 -4 -72z"/>
<path d="M7683 8850 c-143 -32 -169 -213 -44 -297 54 -36 152 -26 190 21 12
14 11 20 -9 41 -22 24 -24 24 -43 8 -11 -10 -35 -18 -57 -18 -54 0 -90 35 -90
87 0 54 35 88 90 88 39 0 48 -6 164 -119 97 -95 130 -121 159 -126 105 -20
197 53 197 155 0 82 -44 139 -121 160 -48 13 -107 -1 -145 -33 l-25 -22 25
-24 c23 -22 26 -22 48 -7 12 9 40 16 61 16 83 0 117 -91 57 -152 -27 -26 -36
-30 -67 -25 -29 5 -58 28 -147 115 -61 60 -120 114 -131 119 -31 16 -77 21
-112 13z"/>
<path d="M5450 5912 c-34 -16 -55 -46 -62 -86 -3 -17 5 -19 121 -18 68 1 125
3 127 5 2 2 -1 20 -7 41 -19 68 -104 96 -179 58z"/>
<path d="M7581 5912 c-53 -27 -74 -63 -79 -136 -7 -113 43 -176 142 -176 95 0
149 59 149 162 0 124 -110 203 -212 150z"/>
<path d="M9065 5916 c-35 -15 -61 -50 -67 -87 l-3 -24 120 0 120 0 3 31 c5 50
-32 86 -94 90 -29 3 -62 -1 -79 -10z"/>
<path d="M7442 5178 c-7 -7 -12 -21 -12 -33 0 -45 54 -62 69 -22 17 47 -25 87
-57 55z"/>
<path d="M6458 5191 l-16 -41 34 0 c39 0 40 3 15 48 l-17 34 -16 -41z"/>
<path d="M5832 5178 c-7 -7 -12 -21 -12 -33 0 -43 50 -62 70 -26 22 43 -25 92
-58 59z"/>
<path d="M6923 5183 c-24 -9 -13 -23 18 -23 20 0 29 4 27 13 -5 13 -26 18 -45
10z"/>
<path d="M7697 5184 c-15 -15 -6 -24 24 -24 20 0 29 4 27 13 -5 14 -40 21 -51
11z"/>
<path d="M8420 5176 c-15 -19 -9 -56 11 -69 25 -16 49 -1 49 31 0 46 -35 68
-60 38z"/>
<path d="M8746 5174 c-19 -18 -20 -28 -6 -55 19 -34 70 -18 70 22 0 18 -25 49
-40 49 -5 0 -16 -7 -24 -16z"/>
<path d="M9260 5175 c-11 -13 -8 -15 20 -15 21 0 30 4 28 13 -7 18 -33 20 -48
2z"/>
</g>
</svg>
